<svg id="icon" xmlns="http://www.w3.org/2000/svg" width="100" height="100" viewBox="0 0 100 100">
  <defs>
    <style>
      .cls-1 {
        fill-rule: evenodd;
      }
    </style>
  </defs>
  <path id="形状_1339" data-name="形状 1339" class="cls-1" d="M50.723,83.011L28.874,54.346,7.026,83.011,4.995,81.5l22.864-30a1.328,1.328,0,0,1,2.031,0l22.864,30Zm42.245-3.575-29.8-39.1L41.7,68.5,39.666,67,62.152,37.5a1.275,1.275,0,0,1,1.016-.5h0a1.275,1.275,0,0,1,1.015.5L95,77.928ZM32.124,75.319a1.282,1.282,0,0,1-.833-0.308L26.246,70.69l-4.965,3.224a1.284,1.284,0,0,1-1.749-.344l-3.517-5.116,2.1-1.408,2.814,4.093,4.723-3.066a1.286,1.286,0,0,1,1.531.1l4.645,3.98L37.09,63.8l2.159,1.322L33.2,74.726a1.268,1.268,0,0,1-.89.578A1.249,1.249,0,0,1,32.124,75.319Zm32.193-4.944a1.276,1.276,0,0,1-1.014-.5L57.051,61.7l-3.22,3.2a1.228,1.228,0,0,1-.927.371,1.273,1.273,0,0,1-.911-0.406l-5.17-5.561,1.871-1.694,4.269,4.592,3.315-3.3a1.231,1.231,0,0,1,.987-0.368,1.275,1.275,0,0,1,.929.495l6.026,7.875,4.032-6.337a1.266,1.266,0,0,1,.821-0.561,1.283,1.283,0,0,1,.978.2l3.905,2.665,4.809-4.038,1.646,1.91L74.86,65.412a1.286,1.286,0,0,1-1.546.076L69.7,63.02l-4.3,6.767a1.272,1.272,0,0,1-1.021.586Z"/>
  <path id="形状_1340" data-name="形状 1340" class="cls-1" d="M28.5,36.981a6.574,6.574,0,1,1,6.692-6.573A6.64,6.64,0,0,1,28.5,36.981Zm0-11.18a4.608,4.608,0,1,0,4.69,4.607A4.654,4.654,0,0,0,28.5,25.8Zm1-4.349h-2V18h2v3.448Zm0,21.537h-2V39.542h2v3.448ZM41,31.391H37.489V29.426H41v1.966Zm-21.489,0H16V29.426h3.51v1.966Zm17.057,8.845-2.48-2.44L35.5,36.407l2.48,2.44ZM21.477,24.418L19,21.979l1.415-1.39,2.481,2.439Zm14.575,0.714-1.415-1.39L37.118,21.3l1.415,1.39Zm-15.835,15.1L18.8,38.837,21.287,36.4,22.7,37.79Z"/>
</svg>
