<svg id="icon" xmlns="http://www.w3.org/2000/svg" width="100" height="100" viewBox="0 0 100 100">
  <defs>
    <style>
      .cls-1 {
        fill: #2a2a2a;
        fill-rule: evenodd;
      }
    </style>
  </defs>
  <path id="形状_1341" data-name="形状 1341" class="cls-1" d="M50.5,82a1.535,1.535,0,0,1-.726-0.183A50.864,50.864,0,0,0,25.5,75.6a55.166,55.166,0,0,0-10.639,1.064,1.537,1.537,0,0,1-1.29-.337A1.616,1.616,0,0,1,13,75.094v-54.4a1.59,1.59,0,0,1,1.267-1.571A58.22,58.22,0,0,1,25.5,18a53.79,53.79,0,0,1,25,6.2,53.789,53.789,0,0,1,25-6.2,58.222,58.222,0,0,1,11.23,1.122A1.591,1.591,0,0,1,88,20.693v54.4a1.616,1.616,0,0,1-.568,1.234,1.534,1.534,0,0,1-1.29.337A55.163,55.163,0,0,0,75.5,75.6a50.864,50.864,0,0,0-24.277,6.217A1.535,1.535,0,0,1,50.5,82Zm-25-9.6a53.79,53.79,0,0,1,25,6.2,53.789,53.789,0,0,1,25-6.2,57.581,57.581,0,0,1,9.372.785V22.029A54.7,54.7,0,0,0,75.5,21.2a50.865,50.865,0,0,0-24.277,6.217,1.531,1.531,0,0,1-1.451,0A50.865,50.865,0,0,0,25.5,21.2a54.7,54.7,0,0,0-9.372.829V73.186A57.581,57.581,0,0,1,25.5,72.4ZM58.312,38.575A1.565,1.565,0,0,1,56.837,37.5a1.61,1.61,0,0,1,.961-2.038,52.6,52.6,0,0,1,19.309-3.033,1.6,1.6,0,0,1-.089,3.2,49.447,49.447,0,0,0-18.191,2.855A1.528,1.528,0,0,1,58.312,38.575Zm-15.625,0a1.526,1.526,0,0,1-.514-0.09A49.478,49.478,0,0,0,23.982,35.63H23.937a1.6,1.6,0,0,1-.044-3.2A52.6,52.6,0,0,1,43.2,35.464a1.61,1.61,0,0,1,.961,2.038A1.566,1.566,0,0,1,42.687,38.575Zm15.625,12.8A1.565,1.565,0,0,1,56.837,50.3a1.61,1.61,0,0,1,.961-2.038,52.6,52.6,0,0,1,19.309-3.032,1.6,1.6,0,0,1-.089,3.2,49.447,49.447,0,0,0-18.191,2.855A1.53,1.53,0,0,1,58.312,51.375Zm-15.625,0a1.528,1.528,0,0,1-.514-0.09A49.474,49.474,0,0,0,23.982,48.43H23.937a1.6,1.6,0,0,1-.044-3.2A52.6,52.6,0,0,1,43.2,48.264a1.61,1.61,0,0,1,.961,2.038A1.566,1.566,0,0,1,42.687,51.375Zm15.625,12.8A1.565,1.565,0,0,1,56.837,63.1a1.61,1.61,0,0,1,.961-2.038,52.6,52.6,0,0,1,19.309-3.032,1.6,1.6,0,0,1-.089,3.2,49.444,49.444,0,0,0-18.191,2.855A1.528,1.528,0,0,1,58.312,64.175Zm-15.625,0a1.526,1.526,0,0,1-.514-0.09A49.517,49.517,0,0,0,23.982,61.23H23.937a1.6,1.6,0,0,1-.044-3.2A52.611,52.611,0,0,1,43.2,61.064a1.61,1.61,0,0,1,.961,2.038A1.565,1.565,0,0,1,42.687,64.175ZM50.5,82a1.582,1.582,0,0,1-1.562-1.6V26a1.563,1.563,0,1,1,3.125,0V80.4A1.582,1.582,0,0,1,50.5,82Z"/>
</svg>
