<svg id="icon" xmlns="http://www.w3.org/2000/svg" width="100" height="100" viewBox="0 0 100 100">
  <defs>
    <style>
      .cls-1 {
        fill: #2a2a2a;
        fill-rule: evenodd;
      }
    </style>
  </defs>
  <path id="形状_1339" data-name="形状 1339" class="cls-1" d="M38.022,52.008L22.242,31.281,6.463,52.008,5,50.918l16.513-21.69a0.959,0.959,0,0,1,1.467,0l16.513,21.69Zm30.51-2.585L47.01,21.151,31.5,41.518l-1.467-1.09L46.276,19.1a0.92,0.92,0,0,1,.733-0.362h0a0.92,0.92,0,0,1,.733.362L70,48.332ZM24.59,46.446a0.926,0.926,0,0,1-.6-0.223L20.345,43.1,16.759,45.43a0.926,0.926,0,0,1-1.263-.249l-2.54-3.7,1.518-1.018,2.033,2.959,3.411-2.217a0.928,0.928,0,0,1,1.106.073l3.355,2.878,3.8-6.043,1.559,0.956-4.366,6.947a0.916,0.916,0,0,1-.643.418A0.9,0.9,0,0,1,24.59,46.446ZM47.84,42.871a0.921,0.921,0,0,1-.732-0.361L42.592,36.6l-2.326,2.316a0.886,0.886,0,0,1-.669.268,0.919,0.919,0,0,1-.658-0.293l-3.734-4.021,1.352-1.225,3.083,3.32,2.394-2.384a0.888,0.888,0,0,1,.713-0.266,0.92,0.92,0,0,1,.671.358l4.352,5.694,2.912-4.582a0.914,0.914,0,0,1,.593-0.406,0.926,0.926,0,0,1,.706.142L54.8,37.45l3.473-2.919,1.189,1.381-4.01,3.371a0.928,0.928,0,0,1-1.117.055l-2.611-1.784-3.109,4.893a0.918,0.918,0,0,1-.737.424H47.84Z"/>
  <path id="形状_1340" data-name="形状 1340" class="cls-1" d="M21.972,18.725a4.753,4.753,0,1,1,4.833-4.752A4.8,4.8,0,0,1,21.972,18.725Zm0-8.084a3.332,3.332,0,1,0,3.387,3.331A3.363,3.363,0,0,0,21.972,10.641ZM22.7,7.5H21.25V5H22.7V7.5Zm0,15.573H21.25V20.576H22.7v2.493ZM31,14.683H28.464V13.262H31v1.421Zm-15.52,0H12.944V13.262h2.535v1.421Zm12.319,6.4-1.791-1.764,1.022-1,1.791,1.764ZM16.9,9.64L15.108,7.877l1.022-1,1.792,1.763Zm10.527,0.516-1.022-1L28.2,7.389l1.022,1ZM15.99,21.072l-1.021-1.005L16.763,18.3l1.021,1.005Z"/>
  <path id="形状_1341" data-name="形状 1341" class="cls-1" d="M68.5,95a1.109,1.109,0,0,1-.513-0.126A36.738,36.738,0,0,0,50.831,90.6a40.036,40.036,0,0,0-7.518.732A1.1,1.1,0,0,1,42,90.252v-37.4a1.1,1.1,0,0,1,.9-1.08A42.254,42.254,0,0,1,50.831,51,38.862,38.862,0,0,1,68.5,55.262,38.863,38.863,0,0,1,86.169,51a42.255,42.255,0,0,1,7.936.771,1.1,1.1,0,0,1,.9,1.08v37.4a1.1,1.1,0,0,1-1.313,1.08,40.034,40.034,0,0,0-7.518-.732,36.738,36.738,0,0,0-17.156,4.274A1.108,1.108,0,0,1,68.5,95ZM50.831,88.4A38.863,38.863,0,0,1,68.5,92.662,38.864,38.864,0,0,1,86.169,88.4a41.8,41.8,0,0,1,6.623.54V53.77a39.716,39.716,0,0,0-6.623-.57,36.738,36.738,0,0,0-17.156,4.274,1.108,1.108,0,0,1-1.025,0A36.738,36.738,0,0,0,50.831,53.2a39.715,39.715,0,0,0-6.623.57V88.94A41.8,41.8,0,0,1,50.831,88.4Zm23.19-23.255a1.1,1.1,0,0,1-.364-2.139A38.113,38.113,0,0,1,87.3,60.921a1.1,1.1,0,1,1-.063,2.2,35.829,35.829,0,0,0-12.855,1.963A1.109,1.109,0,0,1,74.021,65.145Zm-11.042,0a1.107,1.107,0,0,1-.364-0.062,35.851,35.851,0,0,0-12.855-1.963H49.728a1.1,1.1,0,0,1-.031-2.2,38.115,38.115,0,0,1,13.645,2.085A1.1,1.1,0,0,1,62.979,65.145Zm11.042,8.8a1.1,1.1,0,0,1-.364-2.139A38.117,38.117,0,0,1,87.3,69.722a1.1,1.1,0,1,1-.063,2.2,35.833,35.833,0,0,0-12.855,1.963A1.107,1.107,0,0,1,74.021,73.945Zm-11.042,0a1.1,1.1,0,0,1-.364-0.062,35.849,35.849,0,0,0-12.855-1.963H49.728a1.1,1.1,0,0,1-.031-2.2,38.119,38.119,0,0,1,13.645,2.085A1.1,1.1,0,0,1,62.979,73.945Zm11.042,8.8a1.1,1.1,0,0,1-.364-2.139A38.115,38.115,0,0,1,87.3,78.522a1.1,1.1,0,1,1-.063,2.2,35.827,35.827,0,0,0-12.855,1.963A1.109,1.109,0,0,1,74.021,82.745Zm-11.042,0a1.108,1.108,0,0,1-.364-0.062,35.882,35.882,0,0,0-12.855-1.963H49.728a1.1,1.1,0,0,1-.031-2.2,38.121,38.121,0,0,1,13.645,2.085A1.1,1.1,0,0,1,62.979,82.745ZM68.5,95a1.1,1.1,0,0,1-1.1-1.1V56.5a1.1,1.1,0,0,1,2.208,0V93.9A1.1,1.1,0,0,1,68.5,95Z"/>
</svg>
