<svg id="icon" xmlns="http://www.w3.org/2000/svg" width="100" height="100" viewBox="0 0 100 100">
  <defs>
    <style>
      .cls-1 {
        fill: #888;
      }

      .cls-1, .cls-2, .cls-3 {
        fill-rule: evenodd;
      }

      .cls-2 {
        fill: #2a2a2a;
      }

      .cls-3 {
        stroke: #2a2a2a;
        stroke-width: 2px;
      }
    </style>
  </defs>
  <path id="椭圆_632" data-name="椭圆 632" class="cls-1" d="M42,50a14,14,0,0,1-28,0"/>
  <path id="椭圆_632-2" data-name="椭圆 632" class="cls-1" d="M86,50a14,14,0,0,1-28,0"/>
  <path id="形状_503" data-name="形状 503" class="cls-2" d="M93.571,44.9a2.9,2.9,0,0,0-1.505-.721,19.828,19.828,0,0,1-3.506-1.045,8.487,8.487,0,0,1-1.537-.982,16.88,16.88,0,0,0-14.988-9.16A18.021,18.021,0,0,0,64.959,34.5a16.43,16.43,0,0,0-5.618,4.348c-0.426.493-.832,1-1.226,1.519a7.426,7.426,0,0,1-1.072,1.5,2.985,2.985,0,0,1-1.95.591c-1.047-.074-2.025-0.5-3.061-0.64a18.021,18.021,0,0,0-3.716-.043c-1.15.09-2.219,0.6-3.371,0.683A2.985,2.985,0,0,1,43,41.866a7.387,7.387,0,0,1-1.073-1.5c-0.393-.518-0.8-1.026-1.225-1.519A16.443,16.443,0,0,0,35.079,34.5,18.027,18.027,0,0,0,28,32.991a16.88,16.88,0,0,0-14.987,9.16,8.48,8.48,0,0,1-1.537.982,19.827,19.827,0,0,1-3.506,1.045,2.906,2.906,0,0,0-1.506.721c-0.792.95-.339,2.777-0.258,3.892a1.857,1.857,0,0,0,.656,1.492,5.717,5.717,0,0,0,1.984.323,4.68,4.68,0,0,1,2.5,2.2A16.924,16.924,0,0,0,28,67.005a19.732,19.732,0,0,0,5.708-1.041,15.576,15.576,0,0,0,7.9-5.87,18.148,18.148,0,0,0,2.285-4.488c0.293-.827.536-1.67,0.755-2.519a18.185,18.185,0,0,1,.616-2.619A5.978,5.978,0,0,1,47.2,47.606a5.982,5.982,0,0,1,5.644,0,5.971,5.971,0,0,1,1.934,2.862,18.306,18.306,0,0,1,.616,2.619c0.219,0.849.462,1.692,0.754,2.519a18.283,18.283,0,0,0,2.285,4.488,15.576,15.576,0,0,0,7.9,5.87,19.732,19.732,0,0,0,5.707,1.041,16.922,16.922,0,0,0,16.654-14.2,4.684,4.684,0,0,1,2.5-2.2,5.706,5.706,0,0,0,1.983-.323,1.859,1.859,0,0,0,.658-1.492C93.911,47.678,94.363,45.851,93.571,44.9ZM28,63.695A13.7,13.7,0,1,1,41.617,50,13.655,13.655,0,0,1,28,63.695Zm44.032,0A13.7,13.7,0,1,1,85.647,50,13.655,13.655,0,0,1,72.035,63.695Z"/>
  <path id="形状_1342" data-name="形状 1342" class="cls-3" d="M65,46l6-6"/>
  <path id="形状_1342-2" data-name="形状 1342" class="cls-3" d="M67,52L77,42"/>
</svg>
