<svg id="icon" xmlns="http://www.w3.org/2000/svg" width="100" height="100" viewBox="0 0 100 100">
  <defs>
    <style>
      .cls-1 {
        fill: #2a2a2a;
      }

      .cls-1, .cls-2 {
        fill-rule: evenodd;
      }

      .cls-2 {
        fill: #00a2e1;
      }
    </style>
  </defs>
  <path id="形状_1038" data-name="形状 1038" class="cls-1" d="M49.89,88.455a90.9,90.9,0,0,1-15.63-1.194C29.041,86.3,26.713,85,26.713,83.028c0-2.235,3.082-3.239,5.767-3.865A66.807,66.807,0,0,1,43.074,77.8V69.548a1.442,1.442,0,0,1,2.885,0v9.611a1.437,1.437,0,0,1-1.375,1.432c-8.849.414-13.316,1.668-14.669,2.44,1.768,1.013,8.542,2.558,19.975,2.558s18.2-1.541,19.971-2.555c-1.4-.78-6.1-2.084-15.173-2.464a1.438,1.438,0,0,1-1.382-1.433V69.548a1.442,1.442,0,0,1,2.885,0v8.222c8.006,0.424,16.877,1.7,16.877,5.259,0,1.969-2.328,3.275-7.546,4.233A90.915,90.915,0,0,1,49.89,88.455Zm0-17.236A29.631,29.631,0,1,1,79.7,41.588,29.753,29.753,0,0,1,49.89,71.219Zm0-56.394A26.764,26.764,0,1,0,76.813,41.588,26.873,26.873,0,0,0,49.89,14.825Zm0,49.385A22.622,22.622,0,1,1,72.646,41.588,22.715,22.715,0,0,1,49.89,64.209Zm0-42.375A19.754,19.754,0,1,0,69.762,41.588,19.835,19.835,0,0,0,49.89,21.834Z"/>
  <path id="形状_1039" data-name="形状 1039" class="cls-2" d="M39.457,43.219a1.446,1.446,0,0,1-1.021-2.468L48.868,30.307a1.445,1.445,0,1,1,2.043,2.045L40.479,42.8A1.44,1.44,0,0,1,39.457,43.219Zm2.729,7.552A1.446,1.446,0,0,1,41.164,48.3L58.82,30.628a1.445,1.445,0,1,1,2.043,2.045L43.207,50.347A1.438,1.438,0,0,1,42.186,50.771Z"/>
</svg>
