<?xml version="1.0" encoding="utf-8"?>
<!-- Generator: Adobe Illustrator 23.0.3, SVG Export Plug-In . SVG Version: 6.00 Build 0)  -->
<svg version="1.1" id="图层_1" xmlns="http://www.w3.org/2000/svg" xmlns:xlink="http://www.w3.org/1999/xlink" x="0px" y="0px"
	 viewBox="0 0 128 128" style="enable-background:new 0 0 128 128;" xml:space="preserve">
<style type="text/css">
	.st0{fill:#00A2E1;}
</style>
<path class="st0" d="M118.6,50.9c-3.7-4.4-9.6-4.4-11.6-4.4H91.3c1.3-6.9,2.4-14.9,0-23.4c-1.6-5.8-4.5-10-9-12.6
	c-2.3-1.4-4.8-2.1-7.2-2.1c-6.5,0-11.3,4.8-12,12c-0.3,2.7-0.5,5.2-1.2,7.4c-2.4,8-8.2,14.1-13.5,19c-2,1.8-4.1,5-4.2,8.7
	c-0.1,9.7-0.1,19.4-0.1,29.4l0,17.7c0,5.9,3.1,10.7,8.4,12.7c2.8,1.1,5.7,1.8,8.8,1.8c4.8,0.1,9.7,0.1,14.3,0.1h7.1
	c4.7,0,9.3,0,14,0.1h0.2c5.4,0,9.7-2.7,11.7-7.4l0.6-1.4c1.4-3.3,2.9-6.6,3.8-10.3c2.8-11.4,5.6-23.5,7.9-35.5
	C121.7,57.6,120.9,53.8,118.6,50.9L118.6,50.9z M27,46.8h-1.5c-7,0-12.7,5.7-12.7,12.7v43.5c0,7,5.7,12.7,12.7,12.7H27
	c7,0,12.7-5.7,12.7-12.7V59.5C39.8,52.5,34,46.8,27,46.8z"/>
</svg>
