<svg xmlns="http://www.w3.org/2000/svg" width="34" height="34" viewBox="0 0 34 34">
  <defs>
    <style>
      .cls-1 {
        fill-rule: evenodd;
      }
    </style>
  </defs>
  <path id="RX" class="cls-1" d="M30.621,31.94a12.2,12.2,0,0,1-1.954-2.449l-5.516-8.116,3.79-4.533q1.534-1.828,1.917-2.179a3.7,3.7,0,0,1,1.136-.738,4.316,4.316,0,0,1,1.4-.212V13.171H24.036v0.541a3.466,3.466,0,0,1,1.327.19,1.513,1.513,0,0,1,.656.526,1.275,1.275,0,0,1,.229.731q0,0.79-1.622,2.764L22.792,20.15l-0.275.333-6.552-9.027a6.6,6.6,0,0,0,2.846-1.36A4.667,4.667,0,0,0,20.4,6.469a4.9,4.9,0,0,0-1.062-3.137A5.351,5.351,0,0,0,16.6,1.5,20.451,20.451,0,0,0,11.291,1H2V1.541a4.758,4.758,0,0,1,1.873.249,1.452,1.452,0,0,1,.7.665,6.085,6.085,0,0,1,.2,2.025V17.349a6.009,6.009,0,0,1-.2,2.018,1.5,1.5,0,0,1-.693.665A4.627,4.627,0,0,1,2,20.288v0.541H12.235V20.288a4.755,4.755,0,0,1-1.873-.248,1.451,1.451,0,0,1-.7-0.665,6.084,6.084,0,0,1-.2-2.025V11.792h1.313l8.616,12.361-3.967,4.8a15.961,15.961,0,0,1-2.758,2.808,4.914,4.914,0,0,1-2.065.7V33h7.684V32.459a5.737,5.737,0,0,1-1.268-.088,2.073,2.073,0,0,1-1.047-.526,1.12,1.12,0,0,1-.354-0.79,5.287,5.287,0,0,1,1.372-2.281l3.053-3.7,2.92,4.284A14.864,14.864,0,0,1,23.992,31a1.027,1.027,0,0,1,.1.468,0.79,0.79,0,0,1-.339.643,3.177,3.177,0,0,1-1.5.351V33H32V32.459A2.78,2.78,0,0,1,30.621,31.94ZM14.97,9.035a3.049,3.049,0,0,1-1.6,1.345,9.473,9.473,0,0,1-3.068.373H9.462V2.068H11.04A4.686,4.686,0,0,1,14.484,3.15,4.6,4.6,0,0,1,15.553,6.5,4.892,4.892,0,0,1,14.97,9.035Z"/>
</svg>
