<svg xmlns="http://www.w3.org/2000/svg" width="420" height="360" viewBox="0 0 420 360">
  <defs>
    <style>
      .cls-1 {
        fill: #dadada;
        fill-rule: evenodd;
      }
    </style>
  </defs>
  <path id="cart_icon" data-name="cart icon" class="cls-1" d="M406.8,352.6h-5.076a3.2,3.2,0,0,0,0,6.4H406.8A3.2,3.2,0,0,0,406.8,352.6Zm-18.928,0H377.827a3.2,3.2,0,0,0,0,6.4h10.048A3.2,3.2,0,0,0,387.875,352.6Zm-23.292,0H63.622a3.2,3.2,0,0,0,0,6.4H364.583A3.2,3.2,0,0,0,364.583,352.6Zm-320.142,0H28.253a3.2,3.2,0,0,0,0,6.4H44.441A3.2,3.2,0,0,0,44.441,352.6Zm-3.854-183.53a6,6,0,0,0-7.288,4.344,0.891,0.891,0,1,0,1.727.438,4.22,4.22,0,1,1,1.016,3.932,0.891,0.891,0,0,0-1.3,1.221A6,6,0,1,0,40.587,169.068ZM15.267,112.051a0.879,0.879,0,1,0,1.243-1.244l-2.693-2.7a0.879,0.879,0,0,0-1.243,1.244Zm0.3,2.43a0.88,0.88,0,0,0-.879-0.88H10.879a0.88,0.88,0,0,0,0,1.76h3.809A0.88,0.88,0,0,0,15.567,114.481Zm1.049,2.386a0.877,0.877,0,0,0-1.243,0l-2.693,2.7a0.879,0.879,0,1,0,1.243,1.244l2.693-2.7A0.88,0.88,0,0,0,16.616,116.867Zm2.427,0.944a0.88,0.88,0,0,0-.879.88v3.814a0.879,0.879,0,1,0,1.758,0v-3.814A0.879,0.879,0,0,0,19.043,117.811Zm2.383-1.051a0.88,0.88,0,0,0,0,1.244l2.693,2.7a0.879,0.879,0,0,0,1.243-1.244l-2.693-2.7A0.877,0.877,0,0,0,21.426,116.76Zm0.943-2.43a0.879,0.879,0,0,0,.879.88h3.809a0.88,0.88,0,0,0,0-1.76H23.247A0.879,0.879,0,0,0,22.369,114.33ZM21.941,112.2a0.876,0.876,0,0,0,.622-0.258l2.693-2.7A0.88,0.88,0,0,0,24.012,108l-2.693,2.7A0.88,0.88,0,0,0,21.941,112.2ZM18.892,111a0.88,0.88,0,0,0,.879-0.881v-3.813a0.879,0.879,0,1,0-1.758,0v3.813A0.88,0.88,0,0,0,18.892,111Zm81.766,21.086a1.345,1.345,0,0,0-1.9,0l-4.123,4.129a1.346,1.346,0,0,0,1.9,1.905l4.124-4.129A1.349,1.349,0,0,0,100.658,132.087Zm-9.516,9.528a1.343,1.343,0,0,0-1.9,0l-4.123,4.128a1.347,1.347,0,0,0,1.9,1.906l4.123-4.129A1.348,1.348,0,0,0,91.142,141.615Zm9.515,4.128-4.123-4.128a1.346,1.346,0,1,0-1.9,1.905l4.123,4.129A1.347,1.347,0,1,0,100.657,145.743Zm-9.515-9.527-4.123-4.129a1.347,1.347,0,0,0-1.9,1.906l4.123,4.128A1.346,1.346,0,0,0,91.142,136.216ZM78.973,295.548l-2.657,2.66a0.868,0.868,0,1,0,1.226,1.228l2.657-2.66A0.868,0.868,0,0,0,78.973,295.548Zm-6.131,6.139-2.657,2.661a0.868,0.868,0,1,0,1.226,1.228l2.657-2.661A0.868,0.868,0,0,0,72.841,301.687Zm4.7,0a0.868,0.868,0,0,0-1.226,1.228l2.657,2.66a0.867,0.867,0,0,0,1.226-1.227Zm-6.132-6.139a0.868,0.868,0,0,0-1.226,1.228l2.657,2.66a0.868,0.868,0,0,0,1.226-1.228ZM90.034,190.512a4.064,4.064,0,1,0,4.058,4.063A4.065,4.065,0,0,0,90.034,190.512Zm0,6.919a2.857,2.857,0,1,1,2.853-2.856A2.857,2.857,0,0,1,90.034,197.431ZM152.7,129.947a4.064,4.064,0,1,0,4.059,4.064A4.066,4.066,0,0,0,152.7,129.947Zm0,6.921a2.857,2.857,0,1,1,2.853-2.857A2.858,2.858,0,0,1,152.7,136.868ZM30.851,248.856l-4.376-4.382,4.375-4.381a1,1,0,1,0-1.419-1.42l-4.375,4.381-4.375-4.381a1,1,0,1,0-1.419,1.421l4.375,4.38-4.375,4.382a1,1,0,0,0,1.419,1.42l4.375-4.381,4.376,4.382A1,1,0,1,0,30.851,248.856Zm170.457-96.174h-5.915v-5.923a0.96,0.96,0,1,0-1.919,0v5.923h-5.916a0.961,0.961,0,0,0,0,1.921h5.916v5.923a0.96,0.96,0,1,0,1.919,0V154.6h5.915A0.961,0.961,0,0,0,201.308,152.682Zm-7.955,162.571a16.773,16.773,0,1,0,16.75,16.773A16.78,16.78,0,0,0,193.353,315.253Zm0,27.143a10.371,10.371,0,1,1,10.357-10.37A10.375,10.375,0,0,1,193.353,342.4Zm96.241-27.143a16.773,16.773,0,1,0,16.751,16.773A16.78,16.78,0,0,0,289.594,315.253Zm0,27.143a10.371,10.371,0,1,1,10.357-10.37A10.376,10.376,0,0,1,289.594,342.4Zm41.779-139.935a3.211,3.211,0,0,0-1.337-3.638,3.288,3.288,0,0,0-1.8-.5H158.489a2.739,2.739,0,0,1-2.582-1.827l-7.047-19.9a11.6,11.6,0,0,0-10.912-7.718H116.922a3.287,3.287,0,0,0-3.329,3.1,3.2,3.2,0,0,0,3.195,3.3h21.16a5.194,5.194,0,0,1,4.886,3.456l8.425,23.792,25.125,82.247c0.014,0.05.029,0.1,0.045,0.149l6.842,22.4a3.2,3.2,0,0,0,3.056,2.265H297.533a3.288,3.288,0,0,0,3.329-3.1,3.2,3.2,0,0,0-3.2-3.3H190.72a2.741,2.741,0,0,1-2.62-1.941l-3.233-10.582a2.744,2.744,0,0,1,2.621-3.546h115.66a3.2,3.2,0,0,0,3.057-2.264l13.018-42.614a0.183,0.183,0,0,1,.008-0.025ZM245.194,277.97V247.218a2.742,2.742,0,0,1,2.74-2.743H271.25a2.743,2.743,0,0,1,2.681,3.311l-6.49,30.751a2.742,2.742,0,0,1-2.681,2.176H247.934A2.742,2.742,0,0,1,245.194,277.97Zm-30.023.567-6.49-30.751a2.742,2.742,0,0,1,2.681-3.311h24.7a2.742,2.742,0,0,1,2.74,2.743V277.97a2.742,2.742,0,0,1-2.74,2.743H217.852A2.741,2.741,0,0,1,215.171,278.537Zm32.763-73.811h31.705a2.743,2.743,0,0,1,2.681,3.311L276.44,235.9a2.741,2.741,0,0,1-2.681,2.177H247.934a2.742,2.742,0,0,1-2.74-2.744V207.47A2.742,2.742,0,0,1,247.934,204.726ZM236.06,238.073H208.852a2.741,2.741,0,0,1-2.681-2.177l-5.879-27.859a2.742,2.742,0,0,1,2.681-3.311H236.06a2.742,2.742,0,0,1,2.74,2.744v27.859A2.742,2.742,0,0,1,236.06,238.073Zm75.721,0H285.9a2.743,2.743,0,0,1-2.681-3.311l5.88-27.859a2.741,2.741,0,0,1,2.681-2.177h28.517a2.743,2.743,0,0,1,2.62,3.546l-8.51,27.859A2.742,2.742,0,0,1,311.781,238.073ZM193.517,206.9l5.88,27.859a2.742,2.742,0,0,1-2.681,3.311H170.83a2.74,2.74,0,0,1-2.62-1.942l-8.51-27.859a2.743,2.743,0,0,1,2.62-3.546h28.517A2.74,2.74,0,0,1,193.517,206.9Zm-12.281,71.869-9.394-30.751a2.743,2.743,0,0,1,2.62-3.546h24.763a2.739,2.739,0,0,1,2.681,2.176L208.4,277.4a2.742,2.742,0,0,1-2.681,3.311H183.856A2.74,2.74,0,0,1,181.236,278.772Zm117.52,1.941H276.9a2.743,2.743,0,0,1-2.681-3.311l6.49-30.751a2.741,2.741,0,0,1,2.681-2.176h24.763a2.743,2.743,0,0,1,2.621,3.546l-9.394,30.751A2.741,2.741,0,0,1,298.756,280.713Zm-105.4,47.654a3.659,3.659,0,1,0,3.653,3.659A3.656,3.656,0,0,0,193.353,328.367Zm96.241,0a3.659,3.659,0,1,0,3.654,3.659A3.656,3.656,0,0,0,289.594,328.367ZM123.392,221.4h0Zm44.546,0h0ZM77.247,262.594h0Zm20.779,0h0Zm43.176,0h0Zm-37.049,52.659h0Zm27.935,0h0Zm37.144,0h0Zm4.4-232.492a7.484,7.484,0,0,0-4.33,1.23,17.573,17.573,0,0,0-32.032-1.815,14.025,14.025,0,0,0-23.76,1.311,9.646,9.646,0,0,0-6.687-2.894,9.543,9.543,0,0,0-6.9,2.772,9.972,9.972,0,0,0-2.972,7.069,6.375,6.375,0,0,1-6.363,6.371H88.521a2.286,2.286,0,0,0,0,4.573h2.071a10.95,10.95,0,0,0,10.93-10.944,5.369,5.369,0,0,1,1.6-3.8,4.992,4.992,0,0,1,3.615-1.465,5.146,5.146,0,0,1,5.017,5.123,2.284,2.284,0,1,0,4.567,0,9.483,9.483,0,1,1,18.965,0,2.284,2.284,0,1,0,4.567,0,13.025,13.025,0,1,1,26.05,0,2.284,2.284,0,1,0,4.567,0,2.935,2.935,0,0,1,.894-2.12,2.979,2.979,0,0,1,2.144-.837,3.033,3.033,0,0,1,2.869,3.066v3.451a2.959,2.959,0,0,1-2.954,2.957h-0.946a2.286,2.286,0,0,0,0,4.573h0.946a7.534,7.534,0,0,0,7.521-7.53V90.4A7.633,7.633,0,0,0,173.637,82.761ZM68.119,96.805a2.294,2.294,0,0,0-2.283,2.286,2.284,2.284,0,1,0,3.9-1.614A2.283,2.283,0,0,0,68.119,96.805Zm11.97,0H76.038a2.286,2.286,0,0,0,0,4.573h4.051A2.286,2.286,0,0,0,80.089,96.806Zm83.367,0h-4.808a2.286,2.286,0,0,0,0,4.573h4.808A2.286,2.286,0,0,0,163.456,96.806Zm207.871,2.288a18.6,18.6,0,0,0-13.424,5.413,18.787,18.787,0,0,0-3.738,5.228,13.617,13.617,0,0,0-10.624-5.492,13.382,13.382,0,0,0-9.692,3.9,14.059,14.059,0,0,0-4.187,9.978,8.641,8.641,0,0,1-8.626,8.636h-1.547a2.287,2.287,0,0,0,0,4.573h1.547A13.221,13.221,0,0,0,334.229,118.1a9.445,9.445,0,0,1,2.818-6.692,8.825,8.825,0,0,1,6.406-2.59,9.1,9.1,0,0,1,8.87,9.058,2.284,2.284,0,1,0,4.567,0,14.2,14.2,0,0,1,14.378-14.206,14.377,14.377,0,0,1,14,14.452,8.64,8.64,0,0,1-8.625,8.636h-0.915a2.287,2.287,0,0,0,0,4.573h0.915a13.216,13.216,0,0,0,13.192-13.209A18.964,18.964,0,0,0,371.327,99.094ZM368.6,126.755h-3.79a2.287,2.287,0,0,0,0,4.573h3.79A2.287,2.287,0,0,0,368.6,126.755Zm-57.749,0h-9.33a2.287,2.287,0,0,0,0,4.573h9.33A2.287,2.287,0,0,0,310.854,126.755Zm-18.332,0a2.286,2.286,0,1,0,1.616.672A2.3,2.3,0,0,0,292.522,126.754Zm62.765-86.118A8.745,8.745,0,0,0,349.61,42.5a21.4,21.4,0,0,0-39.686-2.031,16.968,16.968,0,0,0-29.645,1.482,11.51,11.51,0,0,0-8.5-4.029,11.353,11.353,0,0,0-8.214,3.3,11.89,11.89,0,0,0-3.545,8.428,8.54,8.54,0,0,1-8.525,8.536h-2.589a2.286,2.286,0,0,0,0,4.573H251.5a13.115,13.115,0,0,0,13.092-13.109,7.287,7.287,0,0,1,2.176-5.164,6.78,6.78,0,0,1,4.928-1.995,7.007,7.007,0,0,1,6.832,6.976,2.284,2.284,0,1,0,4.567,0,12.424,12.424,0,1,1,24.847,0,2.284,2.284,0,1,0,4.567,0,16.853,16.853,0,1,1,33.705,0,2.284,2.284,0,1,0,4.567,0,4.265,4.265,0,0,1,4.384-4.267,4.366,4.366,0,0,1,4.142,4.4v4.314a4.271,4.271,0,0,1-4.263,4.268h-1.183a2.286,2.286,0,0,0,0,4.573h1.183a8.846,8.846,0,0,0,8.83-8.841V49.61A8.967,8.967,0,0,0,355.287,40.636ZM225.594,58.193h-2.135a2.286,2.286,0,0,0,0,4.573h2.135A2.286,2.286,0,0,0,225.594,58.193Zm15.538,0H233.3a2.286,2.286,0,0,0,0,4.573h7.828A2.286,2.286,0,0,0,241.132,58.193Zm106.392,0h-6.01a2.286,2.286,0,0,0,0,4.573h6.01A2.286,2.286,0,0,0,347.524,58.193ZM196.574,20.921h-0.936a2.286,2.286,0,0,0,0,4.573h0.936A2.286,2.286,0,0,0,196.574,20.921ZM208.488,9.538a9.024,9.024,0,0,0-6.542-2.628,9.116,9.116,0,0,0-6.025,2.453,15.065,15.065,0,0,0-26.77-.414c-0.131-.144-0.265-0.285-0.405-0.423a10.549,10.549,0,0,0-7.619-3.047A10.735,10.735,0,0,0,150.7,16.238v4.417a0.266,0.266,0,0,1-.265.266H147.7a2.286,2.286,0,0,0,0,4.573h2.734a4.841,4.841,0,0,0,4.832-4.838V16.238a6.144,6.144,0,0,1,5.938-6.186,6.044,6.044,0,0,1,6.146,6.049,2.284,2.284,0,1,0,4.567,0,10.514,10.514,0,1,1,21.028,0,2.284,2.284,0,1,0,4.567,0,4.639,4.639,0,0,1,4.523-4.618,4.527,4.527,0,0,1,3.256,1.32,4.847,4.847,0,0,1,1.448,3.434v3.04a1.644,1.644,0,0,1-1.642,1.644,2.286,2.286,0,0,0,0,4.573,6.22,6.22,0,0,0,6.209-6.217v-3.04A9.451,9.451,0,0,0,208.488,9.538ZM139.834,20.921h-3.582a2.286,2.286,0,0,0,0,4.573h3.582A2.286,2.286,0,0,0,139.834,20.921Zm-12.741,0a2.29,2.29,0,1,0,2.284,2.287A2.279,2.279,0,0,0,127.093,20.92Z"/>
</svg>
