<svg width="176" height="118" viewBox="0 0 176 118" fill="none" xmlns="http://www.w3.org/2000/svg">
<path d="M88 14.506C102.131 14.506 119.287 21.65 136.307 34.621C148.941 44.25 157.461 54.029 160.951 59.07C157.466 64.055 148.784 73.844 135.691 83.608C118.494 96.433 101.557 103.495 88 103.495C74.225 103.495 57.203 96.349 40.07 83.373C27.348 73.738 18.729 64.018 15.133 58.949C18.675 53.874 27.159 44.174 39.694 34.621C56.713 21.649 73.869 14.506 88 14.506ZM88 0.662994C44.967 0.662994 0 49.607 0 59C0 68.393 45.934 117.337 88 117.337C129.099 117.337 176 69.382 176 59C176 49.607 131.033 0.662994 88 0.662994V0.662994Z" fill="#00A5C7"/>
<path d="M88 46.146C95.087 46.146 100.854 51.912 100.854 59C100.854 66.088 95.087 71.854 88 71.854C80.913 71.854 75.146 66.088 75.146 59C75.146 51.912 80.913 46.146 88 46.146ZM88 32.303C73.256 32.303 61.303 44.255 61.303 59C61.303 73.745 73.256 85.697 88 85.697C102.744 85.697 114.697 73.745 114.697 59C114.697 44.255 102.744 32.303 88 32.303V32.303Z" fill="#00A5C7"/>
</svg>
