<svg width="176" height="68" viewBox="0 0 176 68" fill="none" xmlns="http://www.w3.org/2000/svg">
<path d="M168.866 0.381012C166.939 0.381012 165.122 1.19001 163.753 2.54601C161.001 5.27001 156.049 8.58901 148.156 11.78C132.558 18.086 110.632 21.702 88.001 21.702C65.37 21.702 43.443 18.086 27.846 11.78C19.953 8.58901 15.001 5.27001 12.249 2.54601C10.879 1.19001 9.063 0.382013 7.136 0.382013C0.680004 0.382013 -2.434 8.26401 2.256 12.701C16.481 26.157 49.516 35.586 88.002 35.586C126.488 35.586 159.523 26.156 173.748 12.701C178.436 8.26301 175.321 0.381012 168.866 0.381012V0.381012Z" fill="#00A5C7"/>
<path d="M57.109 59.471L61.586 34.08C61.9396 32.2992 62.9766 30.7278 64.4749 29.7025C65.9731 28.6771 67.8134 28.2794 69.6013 28.5946C71.3893 28.9097 72.9827 29.9127 74.04 31.3885C75.0974 32.8644 75.5346 34.6957 75.258 36.49L70.781 61.881C70.4614 63.694 69.4347 65.3058 67.9267 66.3618C66.4187 67.4179 64.553 67.8316 62.74 67.512C60.927 67.1924 59.3152 66.1657 58.2592 64.6577C57.2031 63.1497 56.7894 61.284 57.109 59.471V59.471ZM107.202 61.882L102.725 36.491C102.567 35.5933 102.587 34.6731 102.784 33.7831C102.981 32.8931 103.352 32.0507 103.875 31.3039C104.398 30.5572 105.063 29.9208 105.831 29.4312C106.6 28.9415 107.458 28.6081 108.356 28.45C109.254 28.2916 110.174 28.3116 111.064 28.5088C111.954 28.7061 112.796 29.0768 113.543 29.5997C114.29 30.1226 114.926 30.7875 115.416 31.5564C115.906 32.3253 116.239 33.1832 116.397 34.081L120.874 59.472C121.151 61.2663 120.713 63.0976 119.656 64.5735C118.599 66.0493 117.005 67.0523 115.217 67.3674C113.429 67.6826 111.589 67.2849 110.091 66.2595C108.593 65.2342 107.556 63.6628 107.202 61.882V61.882ZM159.64 49.113L141.409 30.882C140.764 30.2374 140.253 29.4722 139.904 28.63C139.555 27.7878 139.376 26.8851 139.376 25.9735C139.376 25.0619 139.555 24.1592 139.904 23.317C140.253 22.4748 140.764 21.7096 141.409 21.065C142.054 20.4204 142.819 19.9091 143.661 19.5602C144.503 19.2114 145.406 19.0318 146.317 19.0318C147.229 19.0318 148.132 19.2114 148.974 19.5602C149.816 19.9091 150.581 20.4204 151.226 21.065L169.457 39.296C170.102 39.9406 170.613 40.7058 170.962 41.548C171.311 42.3902 171.49 43.2929 171.49 44.2045C171.49 45.1161 171.311 46.0188 170.962 46.861C170.613 47.7032 170.102 48.4684 169.457 49.113C168.812 49.7576 168.047 50.2689 167.205 50.6178C166.363 50.9666 165.46 51.1462 164.549 51.1462C163.637 51.1462 162.734 50.9666 161.892 50.6178C161.05 50.2689 160.285 49.7576 159.64 49.113V49.113ZM8.527 39.296L26.758 21.065C28.0598 19.7632 29.8255 19.0318 31.6665 19.0318C33.5075 19.0318 35.2732 19.7632 36.575 21.065C37.8768 22.3668 38.6082 24.1325 38.6082 25.9735C38.6082 27.8145 37.8768 29.5802 36.575 30.882L18.344 49.113C17.6994 49.7576 16.9342 50.2689 16.092 50.6178C15.2498 50.9666 14.3471 51.1462 13.4355 51.1462C12.5239 51.1462 11.6212 50.9666 10.779 50.6178C9.93684 50.2689 9.1716 49.7576 8.527 49.113C7.88241 48.4684 7.37109 47.7032 7.02224 46.861C6.67339 46.0188 6.49384 45.1161 6.49384 44.2045C6.49384 43.2929 6.67339 42.3902 7.02224 41.548C7.37109 40.7058 7.88241 39.9406 8.527 39.296V39.296Z" fill="#00A5C7"/>
</svg>
